#!OML:ASF F:\VICON\USERDATA\INSTALL\Justin_Nancy\Justin_Nancy.ASF
:FULLY-SPECIFIED
:DEGREES
170
root 0.897022 17.7998 -15.442 6.84735 -1.97112 1.00595
lowerback 6.17465 -0.0536292 -1.75655
upperback -0.16978 -0.101918 2.6486
thorax -3.63359 0.00588949 3.74293
lowerneck -17.2308 -4.23785 -10.3302
upperneck 25.0708 -4.24648 4.62506
head 11.3457 -2.34257 2.80255
rclavicle 7.85199e-015 -1.27222e-014
rhumerus -33.0224 0.0220682 -82.3674
rradius 49.1022
rwrist 2.60113
rhand -12.0313 14.7625
rfingers 7.12502
rthumb 14.0268 -14.7442
lclavicle 7.85199e-015 -1.27222e-014
lhumerus -31.9756 2.26406 87.4998
lradius 42.9186
lwrist -0.946135
lhand -14.2177 23.6452
lfingers 7.12502
lthumb 11.9192 53.2859
rfemur -12.7955 4.8906 19.0789
rtibia 23.3769
rfoot -12.1467 -10.5457
rtoes 5.84077
lfemur -11.6723 -3.65816 -19.88
ltibia 20.7357
lfoot -12.738 5.46641
ltoes -1.74024
171
root 0.900082 17.7987 -15.4389 6.90566 -1.96069 1.04027
lowerback 6.18929 -0.0575065 -1.80801
upperback -0.231344 -0.108933 2.68097
thorax -3.70512 0.00562499 3.80731
lowerneck -16.9263 -4.19352 -10.3167
upperneck 24.9889 -4.20401 4.56623
head 11.2494 -2.33174 2.78696
rclavicle -1.00386e-014 -2.78299e-014
rhumerus -33.2584 0.327948 -82.3532
rradius 49.6573
rwrist 2.53389
rhand -12.304 14.781
rfingers 7.12502
rthumb 13.764 -14.7437
lclavicle -1.00386e-014 -2.78299e-014
lhumerus -32.181 2.20912 87.5321
lradius 43.4859
lwrist -0.618229
lhand -14.5956 22.6846
lfingers 7.12502
lthumb 11.5548 52.3461
rfemur -12.8879 4.84771 19.0261
rtibia 23.4137
rfoot -12.1408 -10.5643
rtoes 5.46375
lfemur -11.6935 -3.87162 -19.9092
ltibia 20.7123
lfoot -12.7242 5.56842
ltoes -1.38361
172
root 0.902117 17.7972 -15.4417 6.90567 -1.89751 0.939892
lowerback 6.33516 -0.088152 -1.71991
upperback -0.265262 -0.140851 2.75132
thorax -3.81998 -0.0090049 3.83569
lowerneck -16.8308 -4.1358 -10.3316
upperneck 25.077 -4.12733 4.55385
head 11.2574 -2.30276 2.79878
rclavicle -4.87022e-015 -1.59028e-015
rhumerus -33.4215 0.646304 -82.3827
rradius 50.2405
rwrist 2.34226
rhand -12.5755 14.5182
rfingers 7.12502
rthumb 13.5024 -15.0241
lclavicle -4.87022e-015 -1.59028e-015
lhumerus -32.417 2.21536 87.5518
lradius 44.1623
lwrist -0.271487
lhand -14.631 22.7335
lfingers 7.12502
lthumb 11.5206 52.3969
rfemur -12.8914 4.82085 19.1457
rtibia 23.4316
rfoot -12.0547 -10.6401
rtoes 5.23169
lfemur -11.7463 -3.93467 -19.7962
ltibia 20.7617
lfoot -12.6854 5.57411
ltoes -1.43328
173
root 0.904517 17.7983 -15.4442 6.97896 -1.8865 0.888201
lowerback 6.37963 -0.110563 -1.66439
upperback -0.289691 -0.16478 2.7924
thorax -3.86856 -0.020522 3.85018
lowerneck -16.8185 -4.09109 -10.3638
upperneck 25.1954 -4.06149 4.56401
head 11.2952 -2.27711 2.81981
rclavicle 9.54166e-015 -1.03368e-014
rhumerus -33.501 0.94331 -82.4314
rradius 50.8343
rwrist 2.11261
rhand -12.6466 14.2545
rfingers 7.12502
rthumb 13.4339 -15.2923
lclavicle 9.54166e-015 -1.03368e-014
lhumerus -32.6076 2.18066 87.5626
lradius 44.7985
lwrist 0.152153
lhand -14.9162 21.566
lfingers 7.12502
lthumb 11.2456 51.2446
rfemur -12.991 4.76537 19.1935
rtibia 23.4622
rfoot -12.0827 -10.6068
rtoes 5.35869
lfemur -11.9104 -3.87025 -19.7416
ltibia 20.9049
lfoot -12.6683 5.48281
ltoes -1.30459
174
root 0.907417 17.7974 -15.4507 7.05334 -1.95742 0.878446
lowerback 6.51184 -0.0773228 -1.64508
upperback -0.347819 -0.118196 2.80033
thorax -4.00717 0.00526283 3.84509
lowerneck -16.5594 -4.04511 -10.3639
upperneck 25.1581 -4.01982 4.54536
head 11.226 -2.26299 2.82123
rclavicle 3.18055e-015 1.19271e-014
rhumerus -33.5543 1.19251 -82.4609
rradius 51.2655
rwrist 1.99619
rhand -12.5675 14.5776
rfingers 7.12502
rthumb 13.5101 -14.9642
lclavicle 3.18055e-015 1.19271e-014
lhumerus -32.8133 2.00066 87.6101
lradius 45.4154
lwrist 0.59115
lhand -15.51 20.193
lfingers 7.12502
lthumb 10.6729 49.9019
rfemur -13.1464 4.78253 19.1711
rtibia 23.5116
rfoot -12.0905 -10.5439
rtoes 5.62158
lfemur -12.0959 -3.8235 -19.7439
ltibia 21.0978
lfoot -12.7148 5.4954
ltoes -1.03263
175
root 0.909485 17.7945 -15.4567 7.12685 -2.03277 0.910165
lowerback 6.55446 -0.0346965 -1.67233
upperback -0.298586 -0.0639365 2.80995
thorax -3.9843 0.0319117 3.86523
lowerneck -16.3047 -4.04237 -10.4561
upperneck 24.9033 -4.02328 4.58469
head 11.0837 -2.26681 2.84954
rclavicle 6.95746e-015 -2.06736e-014
rhumerus -33.4255 1.39823 -82.4698
rradius 51.731
rwrist 1.8597
rhand -12.4142 15.1173
rfingers 7.12502
rthumb 13.6578 -14.4146
lclavicle 6.95746e-015 -2.06736e-014
lhumerus -32.7467 1.89043 87.6616
lradius 46.0313
lwrist 1.00566
lhand -15.4373 22.4492
lfingers 7.12502
lthumb 10.743 52.1545
rfemur -13.3208 4.7044 19.1436
rtibia 23.5941
rfoot -11.9123 -10.5336
rtoes 4.19567
lfemur -12.3001 -3.80984 -19.7993
ltibia 21.2919
lfoot -12.8168 5.61681
ltoes -1.48676
176
root 0.912511 17.7893 -15.462 7.20516 -2.00416 0.894297
lowerback 6.53303 -0.0556945 -1.62875
upperback -0.215993 -0.0882458 2.84803
thorax -3.88448 0.0166754 3.88165
lowerneck -16.2048 -4.01746 -10.6196
upperneck 24.7605 -3.97322 4.67182
head 11.0125 -2.24744 2.91538
rclavicle -8.54774e-015 -2.54444e-014
rhumerus -33.3158 1.63698 -82.465
rradius 52.2903
rwrist 1.61339
rhand -12.3729 15.7551
rfingers 7.12502
rthumb 13.6976 -13.7741
lclavicle -8.54774e-015 -2.54444e-014
lhumerus -32.6989 1.8768 87.6909
lradius 46.6816
lwrist 1.43031
lhand -15.5103 22.412
lfingers 7.12502
lthumb 10.6726 52.1209
rfemur -13.4759 4.51587 19.1855
rtibia 23.6931
rfoot -11.7297 -10.4906
rtoes 3.06018
lfemur -12.5149 -3.84378 -19.7771
ltibia 21.5235
lfoot -12.993 5.60205
ltoes -1.31733
177
root 0.915053 17.7869 -15.4705 7.30025 -1.99003 0.862391
lowerback 6.62215 -0.0860935 -1.6297
upperback -0.204891 -0.126183 2.92622
thorax -3.92008 -0.000964589 3.96863
lowerneck -16.1039 -3.94982 -10.7642
upperneck 24.7909 -3.85542 4.69648
head 10.9982 -2.20636 2.96747
rclavicle -1.59028e-015 -2.22639e-014
rhumerus -33.3174 1.95952 -82.4184
rradius 52.8069
rwrist 1.54251
rhand -12.5243 16.0281
rfingers 7.12502
rthumb 13.5517 -13.5109
lclavicle -1.59028e-015 -2.22639e-014
lhumerus -32.7489 1.89911 87.7439
lradius 47.2454
lwrist 1.87388
lhand -14.7919 21.2816
lfingers 7.12502
lthumb 11.3654 50.9536
rfemur -13.655 4.53244 19.205
rtibia 23.8059
rfoot -11.7385 -10.4708
rtoes 4.42
lfemur -12.7531 -3.8873 -19.7326
ltibia 21.7252
lfoot -13.0844 5.58353
ltoes -0.725635
178
root 0.917405 17.7854 -15.4818 7.35853 -1.9865 0.771551
lowerback 6.86878 -0.124246 -1.54113
upperback -0.25608 -0.166758 2.99408
thorax -4.10904 -0.0185911 3.99703
lowerneck -15.8069 -3.88047 -10.8404
upperneck 24.7559 -3.76045 4.65888
head 10.9201 -2.17779 2.98231
rclavicle -9.93923e-015 -3.33958e-014
rhumerus -33.488 2.29038 -82.4277
rradius 53.406
rwrist 1.46075
rhand -12.5395 15.7822
rfingers 7.12502
rthumb 13.5371 -13.7578
lclavicle -9.93923e-015 -3.33958e-014
lhumerus -32.8641 1.94838 87.7278
lradius 47.7822
lwrist 2.29659
lhand -12.5136 25.0342
lfingers 7.12502
lthumb 13.5621 54.5725
rfemur -13.8093 4.56731 19.2916
rtibia 23.9109
rfoot -11.7725 -10.5128
rtoes 5.28856
lfemur -12.9369 -3.95294 -19.6242
ltibia 21.8927
lfoot -13.1315 5.63171
ltoes -0.268614
179
root 0.918975 17.789 -15.4966 7.43981 -1.89603 0.731343
lowerback 7.16741 -0.185712 -1.4758
upperback -0.355555 -0.240183 3.02751
thorax -4.37516 -0.050608 4.00796
lowerneck -15.3533 -3.8014 -10.859
upperneck 24.5615 -3.69005 4.64297
head 10.7532 -2.15088 2.99067
rclavicle -2.78299e-015 -9.54166e-015
rhumerus -33.7687 2.59906 -82.5071
rradius 54.1279
rwrist 1.31779
rhand -12.4695 15.3753
rfingers 7.12502
rthumb 13.6045 -14.1601
lclavicle -2.78299e-015 -9.54166e-015
lhumerus -33.0853 1.92572 87.6836
lradius 48.4559
lwrist 2.61381
lhand -12.277 25.7067
lfingers 7.12502
lthumb 13.79 55.2296
rfemur -14.0037 4.54365 19.3079
rtibia 24.0177
rfoot -11.8801 -10.4559
rtoes 5.52308
lfemur -13.2077 -4.04374 -19.5609
ltibia 22.0964
lfoot -13.1471 5.67695
ltoes -0.445799
180
root 0.92049 17.7904 -15.5107 7.55864 -1.85594 0.651136
lowerback 7.3727 -0.17931 -1.34052
upperback -0.292389 -0.220612 3.0322
thorax -4.42697 -0.0439281 3.9359
lowerneck -15.4899 -3.80768 -10.769
upperneck 24.4531 -3.70185 4.63464
head 10.7379 -2.14483 2.96817
rclavicle -1.51076e-014 7.95139e-016
rhumerus -33.7096 2.67238 -82.548
rradius 54.8087
rwrist 1.28211
rhand -12.5674 15.4848
rfingers 7.12502
rthumb 13.5102 -14.057
lclavicle -1.51076e-014 7.95139e-016
lhumerus -32.9513 1.71069 87.6877
lradius 49.1109
lwrist 2.96017
lhand -13.8056 22.9262
lfingers 7.12502
lthumb 12.3165 52.5435
rfemur -14.2395 4.59081 19.3591
rtibia 24.1508
rfoot -12.017 -10.4371
rtoes 5.7233
lfemur -13.5695 -4.03114 -19.4563
ltibia 22.373
lfoot -13.2222 5.65195
ltoes -0.570608
181
root 0.92246 17.7846 -15.5275 7.67206 -1.7617 0.595895
lowerback 7.59349 -0.165284 -1.19755
upperback -0.126301 -0.19208 3.02512
thorax -4.38074 -0.0357526 3.8449
lowerneck -16.0164 -3.88551 -10.6375
upperneck 24.4616 -3.76339 4.55674
head 10.8443 -2.16342 2.90435
rclavicle -8.34896e-015 -2.3059e-014
rhumerus -33.4214 2.67432 -82.5398
rradius 55.4259
rwrist 1.13448
rhand -12.9863 16.4563
rfingers 7.12502
rthumb 13.1064 -13.1118
lclavicle -8.34896e-015 -2.3059e-014
lhumerus -32.5595 1.37534 87.7351
lradius 49.6629
lwrist 3.22862
lhand -13.0812 26.1632
lfingers 7.12502
lthumb 13.0149 55.7372
rfemur -14.5198 4.62354 19.4012
rtibia 24.3233
rfoot -12.0864 -10.5696
rtoes 5.57492
lfemur -13.9652 -3.91539 -19.3827
ltibia 22.7303
lfoot -13.3381 5.44354
ltoes -0.429676
182
root 0.922387 17.7771 -15.5515 7.86295 -1.67411 0.585181
lowerback 7.84656 -0.130849 -1.11991
upperback -0.00820139 -0.142251 2.98421
thorax -4.40395 -0.0142135 3.75403
lowerneck -16.4591 -3.93292 -10.4935
upperneck 24.525 -3.81849 4.55394
head 10.9548 -2.17091 2.86828
rclavicle -2.98177e-015 -3.33958e-014
rhumerus -33.097 2.55618 -82.5493
rradius 55.9183
rwrist 1.09253
rhand -13.5383 17.9428
rfingers 7.12502
rthumb 12.5743 -11.6588
lclavicle -2.98177e-015 -3.33958e-014
lhumerus -32.2421 0.981415 87.7343
lradius 50.2272
lwrist 3.37182
lhand -14.9601 22.6112
lfingers 7.12502
lthumb 11.2033 52.292
rfemur -14.9703 4.63751 19.4035
rtibia 24.5403
rfoot -12.137 -10.7201
rtoes 5.43269
lfemur -14.5674 -3.82246 -19.3371
ltibia 23.2219
lfoot -13.4109 5.28934
ltoes -0.112855
183
root 0.92201 17.7707 -15.5799 8.12486 -1.64305 0.460959
lowerback 8.03822 -0.0542964 -0.931875
upperback 0.116189 -0.0267078 2.93232
thorax -4.39042 0.0369147 3.58024
lowerneck -16.8373 -3.95716 -10.1603
upperneck 24.5249 -3.87793 4.45884
head 11.0224 -2.17323 2.76554
rclavicle 7.95139e-015 1.03368e-014
rhumerus -32.6577 2.32454 -82.5806
rradius 56.2671
rwrist 0.999811
rhand -13.6446 18.5093
rfingers 7.12502
rthumb 12.4718 -11.0986
lclavicle 7.95139e-015 1.03368e-014
lhumerus -31.8476 0.557737 87.6659
lradius 50.7429
lwrist 3.46075
lhand -14.4837 25.4802
lfingers 7.12502
lthumb 11.6626 55.1356
rfemur -15.5434 4.65719 19.5286
rtibia 24.8193
rfoot -12.1566 -10.7605
rtoes 4.93353
lfemur -15.3441 -3.70186 -19.1668
ltibia 23.8097
lfoot -13.4366 5.21562
ltoes -0.452382
